<svg id="Layer_1" data-name="Layer 1" xmlns="http://www.w3.org/2000/svg" viewBox="0 0 618.5 387.01"><defs><style>.cls-1{fill:#64d4cf;}.cls-2{fill:#fff;}.cls-20,.cls-3{fill:#438ec8;}.cls-14,.cls-4{fill:#f2f2f2;}.cls-5{fill:#e4f0f9;}.cls-6{fill:#51a9e5;}.cls-10,.cls-7{fill:#f1c27d;}.cls-8,.cls-9{fill:#040454;}.cls-9{stroke:#000;stroke-width:0.75px;}.cls-17,.cls-18,.cls-9{stroke-miterlimit:10;}.cls-10,.cls-14,.cls-20{fill-rule:evenodd;}.cls-11{fill:#e6e6e6;}.cls-12{fill:#333;}.cls-13{fill:#1a1a1a;}.cls-15{fill:#050c4c;}.cls-16{fill:#3286bf;}.cls-17,.cls-18{fill:none;stroke:#f2f2f2;}.cls-17{stroke-width:2px;}.cls-19{fill:#66afe2;}</style></defs><title>Web Design (Ash Allen Design Freebie)</title><rect class="cls-1" x="264.33" y="299.08" width="89.2" height="53.71"/><rect class="cls-1" x="123.35" y="93.83" width="372.13" height="217.72" rx="11.98"/><rect class="cls-1" x="225.01" y="350.87" width="172.64" height="21.1" rx="9.02"/><rect class="cls-2" x="135.81" y="109.18" width="346.23" height="176.47"/><rect class="cls-3" x="361.28" y="135.64" width="87.69" height="150.83"/><circle class="cls-4" cx="186.16" cy="80.72" r="4.8"/><rect class="cls-4" x="364.79" y="225.66" width="67.81" height="3.51"/><rect class="cls-4" x="364.79" y="212.8" width="67.81" height="3.51"/><rect class="cls-4" x="364.79" y="167.2" width="67.81" height="36.24"/><rect class="cls-5" x="173.9" y="59.65" width="194.39" height="216.29"/><rect class="cls-3" x="173.9" y="59.65" width="194.39" height="24.29"/><ellipse class="cls-4" cx="197.71" cy="72.19" rx="3.97" ry="3.92"/><ellipse class="cls-4" cx="210.4" cy="72.19" rx="3.97" ry="3.92"/><rect class="cls-6" x="181.05" y="98.05" width="66.65" height="60.34"/><rect class="cls-6" x="258.01" y="98.05" width="96" height="6.27"/><rect class="cls-6" x="258.01" y="110.59" width="96" height="6.27"/><rect class="cls-6" x="258.01" y="123.91" width="96" height="6.27"/><rect class="cls-6" x="181.05" y="179.55" width="180.11" height="48.59"/><rect class="cls-6" x="181.05" y="238.32" width="130.92" height="3.92"/><rect class="cls-6" x="181.05" y="249.29" width="111.87" height="3.92"/><rect class="cls-6" x="181.05" y="260.27" width="130.92" height="3.92"/><rect class="cls-6" x="258.01" y="137.23" width="81.72" height="6.27"/><ellipse class="cls-4" cx="184.68" cy="72.19" rx="3.97" ry="3.92"/><path class="cls-7" d="M612.21,517.46c-4.68,3.51-4.68,4.68-4.68,4.68h2.34Z" transform="translate(-90.75 -151.49)"/><polygon class="cls-7" points="555.36 368.31 560.04 362.46 563.55 365.97 555.36 368.31"/><path class="cls-8" d="M613.7,331.45c-7.59,3.2-8.74,12.59-9.28,17-1.11,9,2.88,11.47,0,18.33-2.31,5.49-5.73,6-6.19,10.47-.54,5.19,3.43,10.39,7.73,13.08,12.33,7.71,36,.16,38.69-9.16,1.19-4.15-1.5-9.76-3.09-13.08-2.52-5.24-4.45-5.84-4.65-9.17-.31-5.32,4.48-6.57,4.65-11.77.19-6.17-6.34-10.79-7.74-11.78C629.36,332.22,620.61,328.54,613.7,331.45Z" transform="translate(-90.75 -151.49)"/><line class="cls-9" x1="429.09" y1="196.43" x2="470.01" y2="223.33"/><path id="Hand" class="cls-10" d="M561.31,378.46c-3-.62-6.37-.64-5.67-2.24s-1.28-1.15-.19-2.57,2.79-4.32,5-2.88a20.52,20.52,0,0,1,5.36,5.26C567,377.73,564.33,380.25,561.31,378.46Z" transform="translate(-90.75 -151.49)"/><path class="cls-11" d="M615.72,364.3s-19.88,9.35-22.22,10.52-29.23-1.17-29.23-1.17l-1.17,8.18s28.06,3.51,31.57,3.51,7,1.17,10.52-2.34,12.86-18.7,12.86-18.7Z" transform="translate(-90.75 -151.49)"/><path class="cls-7" d="M623.9,454.32c0,3.51,0,7,2.1,15.2s25.15,53.79,25.15,53.79L654.3,521s-4-22.22-8.19-29.23-8.58-26.89-8.58-26.89l-2.1-11.69Z" transform="translate(-90.75 -151.49)"/><path class="cls-7" d="M608.7,453.16,611,523.31h5.84s3.51-39.76,3.51-43.26V454.32Z" transform="translate(-90.75 -151.49)"/><path class="cls-7" d="M626.48,351.11a166.85,166.85,0,0,0,3.8,20s-13.3,19-12.35,2.85,0-19,0-19Z" transform="translate(-90.75 -151.49)"/><path class="cls-3" d="M616.88,364.3S606.36,376,606.36,380.67s1.17,3.5,2.34,9.35-2.34,33.91-4.68,42.09-7,24.55-5.84,25.72,38.58,4.68,42.09,4.68c2,0,5.35-1.45,8-2.73a5.13,5.13,0,0,0,2.71-5.89c-3.46-13.51-11.86-46-11.86-53.35,0-8.18,2.34-32.74,0-33.9s-5.85-2.34-8.19,0-11.69-2.34-11.69-2.34" transform="translate(-90.75 -151.49)"/><path id="Hand-2" data-name="Hand" class="cls-10" d="M600.53,409.29c-1.87,2.1-3.2,4.57-4.61,3.62s-1.72.64-2.78-.55-3.45-3.24-1-4.5a28.55,28.55,0,0,1,7.67-2.58C602,404.87,603.61,407.52,600.53,409.29Z" transform="translate(-90.75 -151.49)"/><path class="cls-11" d="M620.39,393.53s9.36-25.73,10.52-26.89,3.51-3.51,5.85-2.34a6.35,6.35,0,0,1,1.72,1.4,11.07,11.07,0,0,1,2.74,8.45,37.34,37.34,0,0,1-2.12,10c-2.34,5.85-2.34,10.53-4.68,14-.86,1.29-3.46,3.21-6.4,5.13a40.7,40.7,0,0,1-22.21,6.57h-5.29v-4.68Z" transform="translate(-90.75 -151.49)"/><polygon class="cls-12" points="497.02 256.77 486.47 234.79 450.03 234.79 461.54 258.77 497.02 256.77"/><rect class="cls-12" x="552.29" y="408.35" width="47" height="1.92" transform="translate(1060.82 667.12) rotate(-180)"/><g id="Shoes"><path class="cls-13" d="M654,518.2c-1.6,2.27-7.43,1.36-7.43,1.36s-5.83,4.68-6.78,7.38,5.62-.47,5.62-.47l10.2-4.93Z" transform="translate(-90.75 -151.49)"/></g><g id="Shoes-2" data-name="Shoes"><path class="cls-13" d="M616.81,521.05c-2.08,2-7.74-.44-7.74-.44s-6.83,3.47-8.35,6.07,5.73.91,5.73.91L617.72,525Z" transform="translate(-90.75 -151.49)"/></g><path class="cls-7" d="M610.37,345.72c-.57,3.85.74,9.47.75,9.48s1.52,5.08,4.16,6.45c1.93,1,7.29-3,10-5.24,1-.8,1.19-1.68.54-2.2l-9.52-7.61C614.78,345.39,610.64,343.87,610.37,345.72Z" transform="translate(-90.75 -151.49)"/><path class="cls-7" d="M627.94,350.76s-.65.93-1.65,2.23l-.46.6h0c-2.58,3.3-6.82,8.18-8.74,7.32-2.87-1.28-3.74-5.81-5.82-9-1.28-2-1.49-4.69-1.37-7.1,0-.15,0-.3,0-.46a2.31,2.31,0,0,1,0-.37c0-.15,0-.3,0-.44s0-.36.06-.53l.09-.81s0,0,0,0a.3.3,0,0,1,0-.13s0-.05.08-.05a2.12,2.12,0,0,1,.76.3c.76.42,1.76,1.06,1.79.85l-1.5-1.46-.5-.49-.25-.24.37.1.66.17.39.1,3.1.79,7.3,1.87,1.43.37Z" transform="translate(-90.75 -151.49)"/><path class="cls-8" d="M607.58,342.39c.48,1.25,4.15.08,9,2.08,4.33,1.79,4.77,4.13,7.71,4.16,3.18,0,4.73-2.68,6.42-2.09,2,.72,1.26,5.21,1.28,5.21s3.1-9.39-2.57-13.54c-4.88-3.58-13.43-1.24-14.13-1C611.15,338.35,607,341,607.58,342.39Z" transform="translate(-90.75 -151.49)"/><circle class="cls-7" cx="536.34" cy="198.72" r="2.29"/><path class="cls-14" d="M562.53,401.87a2.32,2.32,0,0,0,1.17,0,2.35,2.35,0,0,0-1.19-4.54,2.29,2.29,0,0,0-.48.19,2.68,2.68,0,0,1,.5,4.35Z" transform="translate(-90.75 -151.49)"/><path class="cls-7" d="M212.64,161.31c-1.58,5.64-.91,13.48-.9,13.48s1.08,7,4.47,8.49c2.49,1.08,10.8-5.77,15-9.46,1.52-1.33,2-2.63,1.2-3.25l-11.71-9.13C218.85,160,213.39,158.6,212.64,161.31Z" transform="translate(-90.75 -151.49)"/><path class="cls-7" d="M230.14,173.82a168.82,168.82,0,0,0-.49,20.49s-17.17,15.93-12.8.19,4-18.75,4-18.75Z" transform="translate(-90.75 -151.49)"/><path id="Hand-3" data-name="Hand" class="cls-10" d="M186.33,220.8c-3,1-5.82,2.66-6,.93s-1.68-.35-1.45-2.13.22-5.14,2.87-5a20.52,20.52,0,0,1,7.28,1.84C190.86,217.31,189.84,220.83,186.33,220.8Z" transform="translate(-90.75 -151.49)"/><path class="cls-15" d="M204.47,153.71c-.05,2.63-.59,1.28.38,5.06s.78,3.33,3.12,5,1.38,2,4.13,2,5.44-1.68,7.53-2,5.38.95,5.38.95,3,8.71,3.61,9,2.37.61,3,.08.24-3,1.13-4.88,2.64-5.9,2.73-8.39c.1-2.9-4.87-7.94-8.28-8.12a17.92,17.92,0,0,0-6.75,1.16s-1.56-2.5-3-1.92l-6.21,2.51C209.86,154.66,204.47,153.71,204.47,153.71Z" transform="translate(-90.75 -151.49)"/><path class="cls-15" d="M201.39,160.12c1.22,1.62,4.22,5.1,8.73,5.6.43,0,4.69.47,5.35-1.33.44-1.19-.77-3.1-3.05-4.51" transform="translate(-90.75 -151.49)"/><circle class="cls-7" cx="139.03" cy="20.91" r="2.88"/><path class="cls-10" d="M145.7,269.59h-5.84l5.84,5.85,5.85-2.92Z" transform="translate(-90.75 -151.49)"/><polygon class="cls-10" points="84.18 141.48 83.01 143.82 88.86 144.99 90.03 142.65 84.18 141.48"/><g id="Shoes-3" data-name="Shoes"><path class="cls-13" d="M148.51,274.26c-3.35.86-7.87-5-7.87-5s-9.19-.36-12.3,1.47,5.48,4.31,5.48,4.31l13.36,3.83Z" transform="translate(-90.75 -151.49)"/></g><g id="Shoes-4" data-name="Shoes"><path class="cls-13" d="M181.91,294.37c-2.21,2.1-8.2-.46-8.2-.46s-7.22,3.68-8.83,6.43,6.07,1,6.07,1l11.93-2.79Z" transform="translate(-90.75 -151.49)"/></g><path class="cls-16" d="M192.47,254.39s-.88-.12-2.14-.25c-2.6-.26-6.81-.53-8.38.25-2.34,1.17-10.53,9.36-14,11.7S148,275.44,148,275.44l-3.51-5.85s27.26-21.44,31.17-23S217,234.52,217,234.52L230.29,237" transform="translate(-90.75 -151.49)"/><path class="cls-3" d="M221.7,236.86s-25.72,9.35-28.06,11.69S173.76,293,173.76,293l8.19,2.33s11.69-28.06,17.53-31.56c4.65-2.79,22.62-7.8,29.78-9.74a25.69,25.69,0,0,0,5.73-2.32l7.75-4.31-5.84-10.52Z" transform="translate(-90.75 -151.49)"/><path class="cls-10" d="M216.86,202.08a2,2,0,0,0-2.53-1.53,2.41,2.41,0,0,0-1,.45c-7.29,3.71-27.53,16-27.53,16l1.32,3.61s19.43-7.53,21.4-8.38a3.05,3.05,0,0,0,.35-.15v0l8.64-5.9C217.31,204.63,217.07,203.22,216.86,202.08Z" transform="translate(-90.75 -151.49)"/><path class="cls-12" d="M216.92,188.89h1.86a5.5,5.5,0,0,1,5.5,5.5V210a0,0,0,0,1,0,0H211.42a0,0,0,0,1,0,0V194.39A5.5,5.5,0,0,1,216.92,188.89Z" transform="translate(81.72 -243.91) rotate(38.69)"/><path class="cls-12" d="M217,234.52s-3.51-35.08-2.34-39.76,1.17-8.18,7-9.35,7-3.51,10.52,0,8.19,21.05,8.19,21.05,4.67,11.69,4.67,21,.56,19.1.56,19.1-9.91,2-15.76-1.56S217,234.52,217,234.52Z" transform="translate(-90.75 -151.49)"/><path class="cls-10" d="M202.09,220l-.48,3.81s22.46,7.5,30.39,9.52h0a2.15,2.15,0,0,0,3.17-1.84c-.35-8.48-2.52-30.93-2.88-34.15-.42-3.89-4.07-2.67-7-3s-3.56,5.89-4,9.4c-.28,2.2,2.13,12.42,4,19.77l-.38-.07C222.72,223,202.09,220,202.09,220Z" transform="translate(-90.75 -151.49)"/><path class="cls-12" d="M226.28,190.06h1.86a5.5,5.5,0,0,1,5.5,5.5v15.57a0,0,0,0,1,0,0H220.78a0,0,0,0,1,0,0V195.56A5.5,5.5,0,0,1,226.28,190.06Z" transform="translate(-106.88 -131.58) rotate(-4.85)"/><polygon class="cls-11" points="95.99 69.7 85.44 47.72 48.99 47.72 60.5 71.7 95.99 69.7"/><rect class="cls-11" x="155.93" y="221.28" width="47" height="1.92" transform="translate(268.11 292.98) rotate(-180)"/><path id="Hand-4" data-name="Hand" class="cls-10" d="M201.24,218.76c-2.88-1.19-5.65-3-6-1.3s-1.71.24-1.59,2-.09,5.14,2.56,5.18a20.48,20.48,0,0,0,7.38-1.38C205.53,222.53,204.74,219,201.24,218.76Z" transform="translate(-90.75 -151.49)"/><path class="cls-17" d="M325.76,364.3" transform="translate(-90.75 -151.49)"/><path class="cls-3" d="M165.84,489.52c9.38-13.72,27.54-14.61,27-18.72-.36-2.83-9-2.74-9.36-5.72-.43-4.1,15.79-7.25,15.6-13a4.36,4.36,0,0,0-2.6-3.64c-2.82-1.07-6.15,2.64-6.76,2.08-1.16-1.07,12.11-13,9.36-19.24-1.51-3.39-7.76-4.93-12-3.11-3.68,1.58-4.4,5.14-8.32,16.11-4.92,13.77-7.45,20.74-10.91,24.95-5.37,6.53-8.94,6.26-10.92,12-2.56,7.35.39,16.37,3.12,16.63C162,498,162.72,494.08,165.84,489.52Z" transform="translate(-90.75 -151.49)"/><path class="cls-1" d="M161.16,489.52c-7.67-31.85,19.41-69.38,12.47-79a10.26,10.26,0,0,0-3.63-3.12c-3.42-1.54-7.23-.35-9.88.52-5.19,1.71-6.37,3.8-7.8,3.12-2.26-1.07-.07-6.7-1-13.51-1.13-8-6.73-18.49-14.55-19.24-4.85-.47-10.92,2.77-13,7.8-4.23,10.23,9.63,24,6.24,27-1.35,1.2-5.12.44-7.28,0-3.09-.62-4.32-1.65-5.2-1-1.48,1-.36,5.61,1,8.84,5.54,12.69,21.11,16.83,20.28,19.23-.56,1.59-7.06-1-13.52,2.6a15.9,15.9,0,0,0-6.24,6.24c-6.53,13.88,37.72,52.75,43.15,48.34C163.41,496.33,162.15,493.65,161.16,489.52Z" transform="translate(-90.75 -151.49)"/><path class="cls-18" d="M162.2,497.31s-18-27.82-17.07-43-2.69-33.91-2.69-33.91" transform="translate(-90.75 -151.49)"/><path class="cls-18" d="M154.69,455.89C151.28,464,150.28,475,150.28,475" transform="translate(-90.75 -151.49)"/><path class="cls-18" d="M145.79,462.62a64.11,64.11,0,0,0-8.59-6.57" transform="translate(-90.75 -151.49)"/><path class="cls-18" d="M150.24,433.89a169,169,0,0,1-5.11,17.22" transform="translate(-90.75 -151.49)"/><path class="cls-18" d="M182.47,453.65c-8.32,13.51-20.27,39.72-20.27,39.72" transform="translate(-90.75 -151.49)"/><path class="cls-18" d="M179.35,469.76c-7.27,3.12-9.52,8-9.52,8" transform="translate(-90.75 -151.49)"/><polygon class="cls-3" points="88.08 351.02 83.41 376.49 56.37 376.49 53.25 348.42 88.08 351.02"/><rect class="cls-19" x="139.85" y="495.23" width="42.63" height="7.28" transform="translate(231.57 846.25) rotate(-180)"/><rect class="cls-4" y="376.49" width="618.5" height="10.52" rx="4.5"/><path class="cls-20" d="M161.5,213.63a2.32,2.32,0,0,0,1.17,0,2.35,2.35,0,0,0-1.2-4.54,2.43,2.43,0,0,0-.47.19,2.68,2.68,0,0,1,.5,4.35Z" transform="translate(-90.75 -151.49)"/></svg>